<svg width="20" height="20" viewBox="0 0 20 20" fill="none" xmlns="http://www.w3.org/2000/svg">
<path d="M17.4445 1.6665H2.55556C2.00001 1.6665 1.66667 2.11095 1.66667 2.55539V17.3332C1.66667 17.8887 2.11112 18.2221 2.55556 18.2221H10.5556V11.7776H8.33334V9.33317H10.5556V7.55539C10.5556 5.44428 11.8889 4.22206 13.7778 4.22206C14.6667 4.22206 15.4445 4.33317 15.6667 4.33317V6.55539H14.3333C13.3333 6.55539 13.1111 6.99984 13.1111 7.77761V9.33317H15.5556L15.2222 11.8887H13.1111V18.3332H17.3333C17.8889 18.3332 18.2222 17.8887 18.2222 17.4443V2.55539C18.3333 2.11095 17.8889 1.6665 17.4445 1.6665Z" fill="black"/>
</svg>
