<svg width="24" height="24" viewBox="0 0 24 24" fill="none" xmlns="http://www.w3.org/2000/svg">
<path d="M7 18C5.9 18 5 18.9 5 20C5 21.1 5.9 22 7 22C8.1 22 9 21.1 9 20C9 18.9 8.1 18 7 18ZM1 4H3L6.6 11.6L5.2 14C5.1 14.3 5 14.7 5 15C5 16.1 5.9 17 7 17H19V15H7.4C7.3 15 7.2 14.9 7.2 14.8V14.7L8.1 13H15.5C16.3 13 16.9 12.6 17.2 12L20.8 5.5C21 5.3 21 5.2 21 5C21 4.4 20.6 4 20 4H5.2L4.8 3.1C4.5 2.5 3.8 2 3 2H1V4ZM17 18C15.9 18 15 18.9 15 20C15 21.1 15.9 22 17 22C18.1 22 19 21.1 19 20C19 18.9 18.1 18 17 18Z" fill="black"/>
</svg>
