<svg width="20" height="20" viewBox="0 0 20 20" fill="none" xmlns="http://www.w3.org/2000/svg">
<path d="M9.95834 2.95817C12.25 2.95817 12.5 2.95817 13.4167 2.99984C14.25 3.0415 14.7083 3.1665 15 3.2915C15.375 3.4165 15.7083 3.6665 16 3.9165C16.2917 4.20817 16.5 4.5415 16.625 4.9165C16.75 5.20817 16.875 5.6665 16.9167 6.49984C16.9583 7.4165 16.9583 7.6665 16.9583 9.95817C16.9583 12.2498 16.9583 12.4998 16.9167 13.4165C16.875 14.2498 16.75 14.7082 16.625 14.9998C16.3333 15.7498 15.75 16.3332 15 16.6248C14.7083 16.7498 14.25 16.8748 13.4167 16.9165C12.5 16.9582 12.25 16.9582 9.95834 16.9582C7.66667 16.9582 7.41667 16.9582 6.50001 16.9165C5.66667 16.8748 5.20834 16.7498 4.91667 16.6248C4.54167 16.4998 4.20834 16.2498 3.91667 15.9998C3.62501 15.7082 3.41667 15.3748 3.29167 14.9998C3.16667 14.7082 3.04167 14.2498 3.00001 13.4165C2.95834 12.4998 2.95834 12.2498 2.95834 9.95817C2.95834 7.6665 2.95834 7.4165 3.00001 6.49984C3.04167 5.6665 3.16667 5.20817 3.29167 4.9165C3.41667 4.5415 3.66667 4.20817 3.91667 3.9165C4.20834 3.62484 4.54167 3.4165 4.91667 3.2915C5.20834 3.1665 5.66667 3.0415 6.50001 2.99984C7.41667 2.95817 7.70834 2.95817 9.95834 2.95817ZM9.95834 1.4165C7.62501 1.4165 7.33334 1.4165 6.41667 1.45817C5.50001 1.49984 4.87501 1.62484 4.33334 1.87484C3.79167 2.08317 3.29167 2.4165 2.87501 2.83317C2.45834 3.24984 2.08334 3.7915 1.87501 4.33317C1.66667 4.87484 1.50001 5.49984 1.45834 6.4165C1.41667 7.33317 1.41667 7.62484 1.41667 9.95817C1.41667 12.2915 1.41667 12.5832 1.45834 13.4998C1.50001 14.4165 1.62501 15.0415 1.87501 15.5832C2.08334 16.1248 2.41667 16.6665 2.87501 17.0832C3.29167 17.4998 3.83334 17.8748 4.37501 18.0832C4.91667 18.2915 5.54167 18.4582 6.45834 18.4998C7.37501 18.5415 7.66667 18.5415 10 18.5415C12.3333 18.5415 12.625 18.5415 13.5417 18.4998C14.4583 18.4582 15.0833 18.3332 15.625 18.0832C16.7917 17.6248 17.6667 16.7498 18.125 15.5832C18.3333 15.0415 18.5 14.4165 18.5417 13.4998C18.5833 12.5832 18.5833 12.2915 18.5833 9.95817C18.5833 7.62484 18.5833 7.33317 18.5417 6.4165C18.5 5.49984 18.375 4.87484 18.125 4.33317C17.9167 3.74984 17.5833 3.24984 17.125 2.83317C16.7083 2.4165 16.1667 2.0415 15.625 1.83317C15.0833 1.62484 14.4583 1.45817 13.5417 1.4165C12.5833 1.4165 12.2917 1.4165 9.95834 1.4165Z" fill="black"/>
<path d="M9.95834 5.58301C7.54168 5.58301 5.58334 7.54134 5.58334 9.95801C5.58334 12.3747 7.54168 14.333 9.95834 14.333C12.375 14.333 14.3333 12.3747 14.3333 9.95801C14.375 7.54134 12.4167 5.58301 9.95834 5.58301ZM9.95834 12.833C8.37501 12.833 7.12501 11.5413 7.12501 9.99967C7.12501 8.41634 8.41668 7.16634 9.95834 7.16634C11.5417 7.16634 12.7917 8.45801 12.7917 9.99967C12.8333 11.5413 11.5417 12.833 9.95834 12.833Z" fill="black"/>
<path d="M14.5417 6.45833C15.117 6.45833 15.5833 5.99196 15.5833 5.41667C15.5833 4.84137 15.117 4.375 14.5417 4.375C13.9664 4.375 13.5 4.84137 13.5 5.41667C13.5 5.99196 13.9664 6.45833 14.5417 6.45833Z" fill="black"/>
</svg>
