<svg width="20" height="20" viewBox="0 0 20 20" fill="none" xmlns="http://www.w3.org/2000/svg">
<path d="M15.1 5.00817C14.647 4.71251 14.2584 4.32829 13.9577 3.87862C13.6569 3.42895 13.4502 2.9231 13.35 2.3915C13.3083 2.15817 13.2833 1.9165 13.2833 1.6665H10.4167V13.1498C10.3917 13.7721 10.1272 14.3607 9.67834 14.7924C9.2295 15.2242 8.63113 15.4657 8.00834 15.4665C7.69207 15.4665 7.3789 15.4042 7.08671 15.2832C6.79452 15.1621 6.52902 14.9848 6.30539 14.7611C5.85374 14.3095 5.6 13.6969 5.6 13.0582C5.6 11.7332 6.68334 10.6498 8.00834 10.6498C8.25834 10.6498 8.49167 10.6915 8.71667 10.7582V7.83317C8.48334 7.79984 8.25 7.78317 8.00834 7.78317C5.1 7.78317 2.73334 10.1498 2.73334 13.0582C2.73334 14.8415 3.625 16.4248 4.98334 17.3748C5.84167 17.9748 6.88334 18.3332 8.00834 18.3332C10.9167 18.3332 13.2833 15.9665 13.2833 13.0582V7.23317C14.4083 8.0415 15.7833 8.5165 17.2667 8.5165V5.64984C16.4667 5.64984 15.725 5.40817 15.1 5.00817Z" fill="black"/>
</svg>
