<svg width="20" height="20" viewBox="0 0 20 20" fill="none" xmlns="http://www.w3.org/2000/svg">
<path d="M17.0555 4.66402C17.8375 4.19523 18.4381 3.45294 18.7209 2.56851C17.9891 3.00252 17.1784 3.31775 16.3157 3.48765C15.6247 2.75151 14.6404 2.2915 13.551 2.2915C11.4591 2.2915 9.76318 3.98737 9.76318 6.0791C9.76318 6.37595 9.79674 6.66505 9.8613 6.94226C6.71335 6.78431 3.92242 5.27637 2.05429 2.98483C1.72825 3.54424 1.54147 4.19489 1.54147 4.88902C1.54147 6.20308 2.21021 7.36242 3.22653 8.04164C2.6056 8.02199 2.0216 7.85161 1.51088 7.56792C1.51061 7.58372 1.51061 7.59959 1.51061 7.61552C1.51061 9.45071 2.81622 10.9816 4.54896 11.3295C4.2311 11.4161 3.89649 11.4623 3.55101 11.4623C3.30696 11.4623 3.06966 11.4386 2.83844 11.3944C3.3204 12.8992 4.7192 13.9943 6.37664 14.0249C5.08035 15.0407 3.44715 15.6463 1.67261 15.6463C1.3669 15.6463 1.06539 15.6284 0.769066 15.5934C2.44528 16.668 4.43625 17.2951 6.57525 17.2951C13.5421 17.2951 17.3519 11.5235 17.3519 6.51831C17.3519 6.35407 17.3482 6.19072 17.3409 6.02831C18.0809 5.49429 18.7231 4.82717 19.2309 4.0676C18.5517 4.36884 17.8217 4.57245 17.0555 4.66402Z" fill="black"/>
</svg>
