<svg width="20" height="20" viewBox="0 0 20 20" fill="none" xmlns="http://www.w3.org/2000/svg">
<g clip-path="url(#clip0_1_1566)">
<path d="M19.7833 5.50419C19.7833 5.50419 19.5917 4.12919 18.9917 3.52919C18.2333 2.72919 17.3833 2.72919 16.9917 2.67919C14.2 2.47502 10 2.50002 10 2.50002C10 2.50002 5.81667 2.47502 3.025 2.67502C2.64167 2.72502 1.79167 2.72502 1.03333 3.52502C0.433333 4.12502 0.233333 5.50002 0.233333 5.50002C0.233333 5.50002 0.0333333 7.12086 0 8.73336V10.4209C0.0333333 12.0375 0.233333 13.65 0.233333 13.65C0.233333 13.65 0.433333 15.025 1.03333 15.6334C1.79167 16.425 2.78333 16.4 3.23333 16.4834C4.8 16.6334 9.825 16.6667 10 16.6667C10 16.6667 14.2083 16.675 17 16.475C17.3833 16.425 18.2333 16.425 18.9917 15.625C19.5917 15.025 19.7917 13.65 19.7917 13.65C19.7917 13.65 19.9917 12.0334 20 10.4209V8.73336C19.9833 7.12086 19.7833 5.50419 19.7833 5.50419ZM7.975 12.5V6.65836L13.3333 9.69169L7.975 12.5Z" fill="black"/>
</g>
<defs>
<clipPath id="clip0_1_1566">
<rect width="20" height="20" fill="white"/>
</clipPath>
</defs>
</svg>
